<svg width="56" height="74" viewBox="0 0 56 74" fill="none" xmlns="http://www.w3.org/2000/svg">
<path d="M6.89269 17.595C8.07009 16.995 9.30637 16.5751 10.6015 16.3351C11.8966 16.0551 13.1722 15.9952 14.4281 16.1551C15.7232 16.2751 16.9595 16.6151 18.1369 17.175C19.3143 17.6949 20.4132 18.4548 21.4336 19.4547C22.454 20.4946 23.2389 21.6345 23.7884 22.8743C24.3378 24.1141 24.7303 25.494 24.9658 27.0138C25.1228 28.0537 25.3779 29.0135 25.7311 29.8934C26.0843 30.7733 26.4572 31.6532 26.8496 32.5331C27.2813 33.413 27.6738 34.2929 28.027 35.1728C28.4195 36.0527 28.7335 36.9725 28.9689 37.9324C29.1652 38.8523 29.0867 39.7522 28.7335 40.6321C28.4195 41.472 27.7523 41.9919 26.7319 42.1919C26.1432 42.3119 25.5741 42.2719 25.0247 42.0719C24.5144 41.8319 24.0435 41.512 23.6118 41.112C23.1801 40.6721 22.7876 40.2121 22.4344 39.7322C22.1204 39.2123 21.826 38.7323 21.5513 38.2924C20.6486 39.4922 19.6675 40.4321 18.6078 41.112C17.5482 41.752 16.2726 42.1719 14.7813 42.3719C13.5254 42.5319 12.3284 42.5719 11.1902 42.4919C10.0521 42.4119 8.8354 42.1919 7.54026 41.8319C5.85266 41.392 4.4594 40.6321 3.3605 39.5522C2.30084 38.4324 1.47666 37.1525 0.887956 35.7127C0.338502 34.2329 0.0441525 32.6531 0.00490583 30.9733C-0.0343408 29.2935 0.161892 27.6337 0.593606 25.9939C1.14306 23.8342 1.96724 22.0744 3.06615 20.7146C4.16505 19.3547 5.44057 18.3149 6.89269 17.595ZM8.36444 24.6141C7.81499 25.174 7.38328 25.8339 7.0693 26.5938C6.75533 27.3537 6.5591 28.1536 6.4806 28.9935C6.44136 29.8334 6.51985 30.6733 6.71608 31.5132C6.91232 32.3531 7.22629 33.093 7.65801 33.733C8.05047 34.2929 8.71767 34.7728 9.65958 35.1728C10.6015 35.5327 11.5827 35.7527 12.6031 35.8327C13.7805 35.9127 14.8009 35.5927 15.6643 34.8728C16.567 34.1529 17.2342 33.253 17.6659 32.1731C18.1369 31.0533 18.3527 29.8734 18.3135 28.6336C18.2742 27.3537 17.9406 26.1939 17.3127 25.154C16.8417 24.3941 16.2138 23.8342 15.4288 23.4742C14.6832 23.1143 13.8786 22.9343 13.0152 22.9343C12.1517 22.8943 11.2883 23.0343 10.4249 23.3542C9.60071 23.6342 8.9139 24.0542 8.36444 24.6141Z" fill="#FF7A00"/>
<path d="M23.7722 49.6981C24.0862 50.2581 24.2432 50.858 24.2432 51.4979C24.2824 52.1378 24.145 52.7377 23.8311 53.2977C23.4778 54.0176 22.9676 54.5175 22.3005 54.7975C21.6725 55.0375 20.9661 55.0575 20.1811 54.8575C19.8279 54.7775 19.5139 54.6375 19.2392 54.4375C18.9645 54.2376 18.6701 54.0376 18.3562 53.8376C18.0814 53.5976 17.7478 53.3777 17.3554 53.1777C17.0022 52.9777 16.5312 52.8377 15.9425 52.7577C15.3538 52.6778 14.7062 52.6778 13.9998 52.7577C13.3326 52.8377 12.7243 52.9977 12.1748 53.2377C11.3114 53.6776 10.6246 54.3575 10.1144 55.2774C9.60416 56.1573 9.27056 57.1172 9.11357 58.1571C8.95659 59.1569 8.97621 60.1768 9.17244 61.2167C9.40792 62.2566 9.83964 63.1365 10.4676 63.8564C10.9385 64.4163 11.5469 64.8762 12.2926 65.2362C13.0775 65.5961 13.8232 65.8161 14.5296 65.8961C15.1968 65.9761 15.864 65.9761 16.5312 65.8961C17.1984 65.7761 17.846 65.6161 18.4739 65.4162C18.9449 65.2162 19.4747 64.9562 20.0634 64.6363C20.6521 64.2763 21.2212 64.0563 21.7706 63.9764C22.4771 63.9764 23.0265 64.1763 23.419 64.5763C23.8114 64.9362 24.0862 65.3962 24.2432 65.9561C24.4001 66.476 24.4198 67.036 24.302 67.6359C24.2235 68.2358 24.0077 68.7558 23.6545 69.1957C23.1835 69.7956 22.5163 70.3756 21.6529 70.9355C20.7895 71.4554 19.9653 71.8354 19.1803 72.0753C18.2384 72.3953 17.1788 72.5753 16.0014 72.6153C14.8632 72.6553 13.7839 72.6153 12.7635 72.4953C12.2926 72.4153 11.802 72.3153 11.2918 72.1953C10.7816 72.0753 10.291 71.9354 9.82001 71.7754C8.09316 71.1355 6.64103 70.2356 5.46363 69.0757C4.32548 67.8759 3.44243 66.536 2.81448 65.0562C2.22579 63.5764 1.89219 61.9966 1.8137 60.3168C1.7352 58.637 1.93143 56.9772 2.40239 55.3374C2.83411 53.7776 3.36394 52.4578 3.99188 51.3779C4.65908 50.298 5.42439 49.4182 6.28781 48.7382C7.19049 48.0183 8.19128 47.4584 9.29018 47.0584C10.3891 46.6185 11.6057 46.2386 12.9401 45.9186C14.3138 45.6386 15.7659 45.6386 17.2965 45.9186C18.8271 46.1986 20.2008 46.7185 21.4174 47.4784C22.3593 47.9983 23.1443 48.7382 23.7722 49.6981Z" fill="#112452"/>
<path d="M35.6322 46.4034C36.9274 45.7635 38.2814 45.3036 39.6942 45.0236C41.1071 44.7436 42.5004 44.6836 43.874 44.8436C45.2869 45.0036 46.6409 45.3835 47.936 45.9835C49.2704 46.5834 50.4871 47.4233 51.586 48.5032C52.4887 49.423 53.2736 50.5429 53.9408 51.8627C54.608 53.1426 55.0986 54.4024 55.4125 55.6423C56.0797 57.842 56.1778 60.0617 55.7069 62.3014C55.2359 64.5412 54.4314 66.6209 53.2932 68.5407C52.7438 69.4206 52.0569 70.2205 51.2328 70.9404C50.4478 71.6203 49.604 72.1802 48.7014 72.6202C47.524 73.1801 46.2484 73.56 44.8748 73.76C43.5012 74 42.1668 74.06 40.8716 73.94C38.5168 73.82 36.4368 73.2201 34.6314 72.1402C32.8653 71.0604 31.4328 69.6805 30.3339 68.0007C29.2743 66.3209 28.5678 64.4212 28.2146 62.3014C27.9006 60.1417 28.038 57.942 28.6267 55.7023C29.2546 53.3026 30.1573 51.3628 31.3347 49.883C32.5514 48.3632 33.9839 47.2033 35.6322 46.4034ZM37.3983 54.4424C36.8096 55.0023 36.3583 55.7023 36.0443 56.5422C35.7303 57.3821 35.5341 58.2619 35.4556 59.1818C35.3771 60.0617 35.436 60.9616 35.6322 61.8815C35.8677 62.7614 36.2209 63.5613 36.6919 64.2812C37.0843 64.8811 37.7908 65.3811 38.8112 65.781C39.8316 66.181 40.8913 66.4209 41.9902 66.5009C43.2461 66.5809 44.345 66.241 45.2869 65.481C46.2288 64.6811 46.9353 63.7013 47.4062 62.5414C47.9164 61.3816 48.1519 60.1217 48.1126 58.7619C48.0734 57.402 47.7202 56.1622 47.053 55.0423C46.582 54.2424 45.9148 53.6625 45.0514 53.3026C44.2272 52.9026 43.3442 52.7026 42.4023 52.7026C41.4996 52.6626 40.5969 52.8026 39.6942 53.1226C38.7916 53.4025 38.0263 53.8425 37.3983 54.4424Z" fill="#FF7A00"/>
<path d="M32.8284 4.38696C32.9069 2.94714 33.3386 1.78728 34.1235 0.907389C34.9477 0.0274958 36.1055 -0.212473 37.5969 0.187477C38.3033 0.387451 38.8135 0.687416 39.1275 1.08737C39.4807 1.48732 39.7162 1.96726 39.8339 2.52719C39.9909 3.04712 40.0694 3.62705 40.0694 4.26697C40.0694 4.8669 40.0694 5.46682 40.0694 6.06675V14.3457C40.0302 14.6657 40.0105 14.9856 40.0105 15.3056C40.0498 15.5856 40.0694 15.8455 40.0694 16.0855V16.8654H41.5412C41.9729 16.8654 42.385 16.8654 42.7774 16.8654C43.2091 16.8654 43.582 16.8454 43.896 16.8054C46.0545 16.8054 47.8991 17.1254 49.4297 17.7653C50.9996 18.4052 52.2555 19.3051 53.1974 20.465C54.1786 21.5848 54.885 22.9447 55.3167 24.5445C55.7877 26.1043 56.0036 27.8241 55.9643 29.7038C55.9251 31.9435 55.5718 33.8633 54.9046 35.4631C54.2375 37.0629 53.2955 38.3827 52.0789 39.4226C50.8622 40.4625 49.3905 41.2424 47.6636 41.7623C45.976 42.2423 44.0726 42.4822 41.9532 42.4822C39.52 42.4822 37.6754 42.4622 36.4195 42.4222C35.1636 42.3822 34.2609 42.0223 33.7115 41.3424C33.2012 40.6625 32.9265 39.4826 32.8873 37.8028C32.848 36.123 32.8284 33.6633 32.8284 30.4237C32.8284 27.3041 32.8284 24.2245 32.8284 21.1849C32.8676 18.1453 32.8676 15.0856 32.8284 12.006C32.8284 11.6061 32.8088 11.1861 32.7695 10.7462C32.7695 10.3062 32.7695 9.80628 32.7695 9.24635C32.7695 8.68642 32.7695 8.02651 32.7695 7.2666C32.7695 6.4667 32.7892 5.50682 32.8284 4.38696ZM43.8371 35.7631C45.9957 35.6431 47.487 35.0432 48.3112 33.9633C48.7429 33.3634 49.0765 32.6435 49.312 31.8036C49.5475 30.9637 49.6456 30.1238 49.6063 29.2839C49.5671 28.444 49.3905 27.6441 49.0765 26.8842C48.8018 26.0843 48.3505 25.4243 47.7225 24.9044C47.1731 24.4245 46.6236 24.0845 46.0741 23.8845C45.5247 23.6446 44.9556 23.5046 44.3669 23.4646C43.7782 23.3846 43.1503 23.3646 42.4831 23.4046C41.8159 23.4046 41.0506 23.4246 40.1872 23.4646V30.6637L40.0694 35.6431C40.4619 35.6831 40.874 35.7231 41.3057 35.7631C42.0514 35.8431 42.8952 35.8431 43.8371 35.7631Z" fill="#112452"/>
</svg>
